HIERARCHY
ROOT hips
{
  OFFSET -0.00735851563513279 12.18665635585785 0.12248523347079754
  CHANNELS 6 Xposition Yposition Zposition Yrotation Xrotation Zrotation
  JOINT spine
  {
    OFFSET 1.0244548320770264e-7 0.5955291986465454 0
    CHANNELS 3 Yrotation Xrotation Zrotation
    JOINT chest
    {
      OFFSET 0 1.2719063864449713 0
      CHANNELS 3 Yrotation Xrotation Zrotation
      JOINT upperChest
      {
        OFFSET 0 1.490802666915459 0
        CHANNELS 3 Yrotation Xrotation Zrotation
        JOINT neck
        {
          OFFSET 0 1.3131953345263365 0
          CHANNELS 3 Yrotation Xrotation Zrotation
          JOINT head
          {
            OFFSET 0 0.8653679716847534 0
            CHANNELS 3 Yrotation Xrotation Zrotation
            JOINT leftEye
            {
              OFFSET 0.20629723300226033 0.6721053123474121 0.3036841657012701
              CHANNELS 3 Yrotation Xrotation Zrotation
              End Site
              {
                OFFSET 0.20629723300226033 0.6721053123474121 0.3036841657012701
              }
            }
            JOINT rightEye
            {
              OFFSET -0.20629652100615203 0.6721066236495972 0.30368443205952644
              CHANNELS 3 Yrotation Xrotation Zrotation
              End Site
              {
                OFFSET -0.20629652100615203 0.6721066236495972 0.30368443205952644
              }
            }
          }
        }
        JOINT leftShoulder
        {
          OFFSET 0.24624172446783632 0.959903359413147 0
          CHANNELS 3 Yrotation Xrotation Zrotation
          JOINT leftUpperArm
          {
            OFFSET 0.9650355761446514 0 0
            CHANNELS 3 Yrotation Xrotation Zrotation
            JOINT leftLowerArm
            {
              OFFSET 2.4419134471639827 0 0
              CHANNELS 3 Yrotation Xrotation Zrotation
              JOINT leftHand
              {
                OFFSET 2.3874557408809456 0 0
                CHANNELS 3 Yrotation Xrotation Zrotation
                JOINT leftIndexProximal
                {
                  OFFSET 0.7029628753662109 0.06118142604827881 0.23586585000157356
                  CHANNELS 3 Yrotation Xrotation Zrotation
                  JOINT leftIndexIntermediate
                  {
                    OFFSET 0.36102771759033203 -0.001475214958190918 0.056637559086084366
                    CHANNELS 3 Yrotation Xrotation Zrotation
                    JOINT leftIndexDistal
                    {
                      OFFSET 0.22344785928726196 -0.007408857345581055 0.02531452476978302
                      CHANNELS 3 Yrotation Xrotation Zrotation
                      End Site
                      {
                        OFFSET 0.22344785928726196 -0.007408857345581055 0.02531452476978302
                      }
                    }
                  }
                }
                JOINT leftLittleProximal
                {
                  OFFSET 0.6958752870559692 0.034375786781311035 -0.29472956992685795
                  CHANNELS 3 Yrotation Xrotation Zrotation
                  JOINT leftLittleIntermediate
                  {
                    OFFSET 0.34538060426712036 -0.0030041933059692383 0.00024324655532836914
                    CHANNELS 3 Yrotation Xrotation Zrotation
                    JOINT leftLittleDistal
                    {
                      OFFSET 0.19865047931671143 0.00746917724609375 -0.010377676226198673
                      CHANNELS 3 Yrotation Xrotation Zrotation
                      End Site
                      {
                        OFFSET 0.19865047931671143 0.00746917724609375 -0.010377676226198673
                      }
                    }
                  }
                }
                JOINT leftMiddleProximal
                {
                  OFFSET 0.7272291779518127 0.09209799766540527 0.05257739871740341
                  CHANNELS 3 Yrotation Xrotation Zrotation
                  JOINT leftMiddleIntermediate
                  {
                    OFFSET 0.40590834617614746 -0.014838695526123047 0.026817932724952698
                    CHANNELS 3 Yrotation Xrotation Zrotation
                    JOINT leftMiddleDistal
                    {
                      OFFSET 0.2495119571685791 -0.026458144187927246 0.010310646146535873
                      CHANNELS 3 Yrotation Xrotation Zrotation
                      End Site
                      {
                        OFFSET 0.2495119571685791 -0.026458144187927246 0.010310646146535873
                      }
                    }
                  }
                }
                JOINT leftRingProximal
                {
                  OFFSET 0.7334893345832825 0.09136629104614258 -0.1205735495314002
                  CHANNELS 3 Yrotation Xrotation Zrotation
                  JOINT leftRingIntermediate
                  {
                    OFFSET 0.3775520920753479 -0.005917906761169434 0.001896639820188284
                    CHANNELS 3 Yrotation Xrotation Zrotation
                    JOINT leftRingDistal
                    {
                      OFFSET 0.2177620530128479 0.007703900337219238 0.0027355607599020004
                      CHANNELS 3 Yrotation Xrotation Zrotation
                      End Site
                      {
                        OFFSET 0.2177620530128479 0.007703900337219238 0.0027355607599020004
                      }
                    }
                  }
                }
                JOINT leftThumbProximal
                {
                  OFFSET 0.02235114574432373 -0.07603192329406738 0.1950724683701992
                  CHANNELS 3 Yrotation Xrotation Zrotation
                  JOINT leftThumbIntermediate
                  {
                    OFFSET 0.3551589846611023 -0.02970755100250244 0.36741212010383606
                    CHANNELS 3 Yrotation Xrotation Zrotation
                    JOINT leftThumbDistal
                    {
                      OFFSET 0.23456048965454102 -0.016631245613098145 0.2093813568353653
                      CHANNELS 3 Yrotation Xrotation Zrotation
                      End Site
                      {
                        OFFSET 0.23456048965454102 -0.016631245613098145 0.2093813568353653
                      }
                    }
                  }
                }
              }
            }
          }
        }
        JOINT rightShoulder
        {
          OFFSET -0.24624088185373694 0.9600239992141724 0
          CHANNELS 3 Yrotation Xrotation Zrotation
          JOINT rightUpperArm
          {
            OFFSET -0.9650300767908009 0 0
            CHANNELS 3 Yrotation Xrotation Zrotation
            JOINT rightLowerArm
            {
              OFFSET -2.4420125187833426 0 0
              CHANNELS 3 Yrotation Xrotation Zrotation
              JOINT rightHand
              {
                OFFSET -2.3874255620910265 0 0
                CHANNELS 3 Yrotation Xrotation Zrotation
                JOINT rightIndexProximal
                {
                  OFFSET -0.7029609084129333 0.06117355823516846 0.23587234504520893
                  CHANNELS 3 Yrotation Xrotation Zrotation
                  JOINT rightIndexIntermediate
                  {
                    OFFSET -0.3610270619392395 -0.0014804601669311523 0.05664427950978279
                    CHANNELS 3 Yrotation Xrotation Zrotation
                    JOINT rightIndexDistal
                    {
                      OFFSET -0.2234485149383545 -0.0074127912521362305 0.025317884981632233
                      CHANNELS 3 Yrotation Xrotation Zrotation
                      End Site
                      {
                        OFFSET -0.2234485149383545 -0.0074127912521362305 0.025317884981632233
                      }
                    }
                  }
                }
                JOINT rightLittleProximal
                {
                  OFFSET -0.6958779096603394 0.034366607666015625 -0.29472311586141586
                  CHANNELS 3 Yrotation Xrotation Zrotation
                  JOINT rightLittleIntermediate
                  {
                    OFFSET -0.3453786373138428 -0.003008127212524414 0.00025422871112823486
                    CHANNELS 3 Yrotation Xrotation Zrotation
                    JOINT rightLittleDistal
                    {
                      OFFSET -0.19865179061889648 0.00746917724609375 -0.010371447540819645
                      CHANNELS 3 Yrotation Xrotation Zrotation
                      End Site
                      {
                        OFFSET -0.19865179061889648 0.00746917724609375 -0.010371447540819645
                      }
                    }
                  }
                }
                JOINT rightMiddleProximal
                {
                  OFFSET -0.7272304892539978 0.09209012985229492 0.05258418060839176
                  CHANNELS 3 Yrotation Xrotation Zrotation
                  JOINT rightMiddleIntermediate
                  {
                    OFFSET -0.4059063792228699 -0.014843940734863281 0.026821313425898552
                    CHANNELS 3 Yrotation Xrotation Zrotation
                    JOINT rightMiddleDistal
                    {
                      OFFSET -0.24951326847076416 -0.026460766792297363 0.010313207283616066
                      CHANNELS 3 Yrotation Xrotation Zrotation
                      End Site
                      {
                        OFFSET -0.24951326847076416 -0.026460766792297363 0.010313207283616066
                      }
                    }
                  }
                }
                JOINT rightRingProximal
                {
                  OFFSET -0.7334906458854675 0.09135580062866211 -0.12056719791144133
                  CHANNELS 3 Yrotation Xrotation Zrotation
                  JOINT rightRingIntermediate
                  {
                    OFFSET -0.37755340337753296 -0.005923151969909668 0.0019026175141334534
                    CHANNELS 3 Yrotation Xrotation Zrotation
                    JOINT rightRingDistal
                    {
                      OFFSET -0.21775943040847778 0.007701277732849121 0.0027383523993194103
                      CHANNELS 3 Yrotation Xrotation Zrotation
                      End Site
                      {
                        OFFSET -0.21775943040847778 0.007701277732849121 0.0027383523993194103
                      }
                    }
                  }
                }
                JOINT rightThumbProximal
                {
                  OFFSET -0.022347867488861084 -0.07603061199188232 0.19507363624870777
                  CHANNELS 3 Yrotation Xrotation Zrotation
                  JOINT rightThumbIntermediate
                  {
                    OFFSET -0.3550455570220947 -0.029461026191711426 0.36754218488931656
                    CHANNELS 3 Yrotation Xrotation Zrotation
                    JOINT rightThumbDistal
                    {
                      OFFSET -0.23451131582260132 -0.016489624977111816 0.20944765955209732
                      CHANNELS 3 Yrotation Xrotation Zrotation
                      End Site
                      {
                        OFFSET -0.23451131582260132 -0.016489624977111816 0.20944765955209732
                      }
                    }
                  }
                }
              }
            }
          }
        }
      }
    }
  }
  JOINT leftUpperLeg
  {
    OFFSET 0.8483456987887621 -0.42556869983673096 0
    CHANNELS 3 Yrotation Xrotation Zrotation
    JOINT leftLowerLeg
    {
      OFFSET 0 -4.6702112872869534 0
      CHANNELS 3 Yrotation Xrotation Zrotation
      JOINT leftFoot
      {
        OFFSET -0.13096565008163452 -5.202569782733917 -0.2985280640423298
        CHANNELS 3 Yrotation Xrotation Zrotation
        JOINT leftToes
        {
          OFFSET 0.01423943042755127 -0.7568342834711075 1.213271364569664
          CHANNELS 3 Yrotation Xrotation Zrotation
          End Site
          {
            OFFSET 0.01423943042755127 -0.7568342834711075 1.213271364569664
          }
        }
      }
    }
  }
  JOINT rightUpperLeg
  {
    OFFSET -0.8483468051999807 -0.42556607723236084 0
    CHANNELS 3 Yrotation Xrotation Zrotation
    JOINT rightLowerLeg
    {
      OFFSET 0 -4.670219469177788 0
      CHANNELS 3 Yrotation Xrotation Zrotation
      JOINT rightFoot
      {
        OFFSET 0.13097601756453514 -5.202573716640472 -0.29853164963424206
        CHANNELS 3 Yrotation Xrotation Zrotation
        JOINT rightToes
        {
          OFFSET -0.014232628047466278 -0.7568355947732925 1.213272675871849
          CHANNELS 3 Yrotation Xrotation Zrotation
          End Site
          {
            OFFSET -0.014232628047466278 -0.7568355947732925 1.213272675871849
          }
        }
      }
    }
  }
}
MOTION
Frames: 9
Frame Time: 0.03333333333333333
0 11.682712981546562 0 0 0 0 0 -4.610651315171937 0 0 3.0831277533083026 0 0 0 0 0 1.5275236235667615 0 0 0 0 0 0 0 0 0 0 0 1.5275236235667615 0 0 0 0 0 0 0 0 0 0 0 0 0 0 0 0 0 0 0 0 0 0 0 0 0 0 0 0 0 0 0 0 0 0 0 0 0 0 0 0 0 0 0 0 0 0 0 0 0 0 0 0 0 0 0 0 1.5275236235667615 0 0 0 0 0 0 0 0 0 0 0 0 0 0 0 0 0 0 0 0 0 0 0 0 0 0 0 0 0 0 0 0 0 0 0 0 0 0 0 0 0 0 0 0 0 0 0 0 0 0 0 0 0 0 0 0 0 -5.826343164929014 -0.3712483961610101 -3.6333298826370974 5.838118207697276 0 0 0 0 0 0 0 0 5.826343164929014 0.3712483961610101 -3.6333298826370974 -5.838118207697276 0 0 0 0 0 0
0 7.787669160112128 -0.0008061609189130192 0.038444180227161416 -0.25520830090970026 -2.8511537122151793 -1.3895611594502209 1.9391202125163074 -1.6044758420670042 -2.7990790608013016 2.887963956780034 7.492424867658106 0 0 0 0.46410220292601584 5.2607543615197985 5.06629287630037 2.4522828221560737 -3.1921240360672973 -2.7536524483060383 0 0 0 0 0 0 1.5781182069187034 1.433125253868273 1.0536545050227442 -25.997114840493545 -4.968045899246551 -8.492012284089592 -32.76621125598047 15.06677421616529 13.526011614814879 -0.3743070304178304 -0.0700891308966686 3.751154294226051 0 0 0 0 0 0 0 0 0 0 0 0 0 0 0 0 0 0 0 0 0 0 0 0 0 0 0 0 0 0 0 0 0 0 0 0 0 0 0 0 0 0 0 0 0 2.0746762743638207 1.0806430037398995 5.87339138510838 -6.487696666921922 2.9627743286351493 14.137011176729432 9.125845256621515 13.364081915247164 -5.620983553893947 0.5810452212871163 -0.43630880358535695 2.6234649100868483 0 0 0 0 0 0 0 0 0 0 0 0 0 0 0 0 0 0 0 0 0 0 0 0 0 0 0 0 0 0 0 0 0 0 0 0 0 0 0 0 0 0 0 0 0 10.54934282609081 -6.850948621163616 -2.969454970173142 -1.437544026859414 10.228563395910946 9.302105932874502 0.10706641261527267 -2.1201944145853373 -1.4037680765978455 0 0 0 -11.047988460980154 -0.8197995490873824 2.0263757703888388 0.022331188474151335 -2.220066859607633 -6.815808753522929 1.391312945685937 3.8947752951505694 1.4410457096578633 0 0 0
0 3.8926253386776946 -0.0016123218378260385 0.08953679739842789 -0.5081883187100074 -5.702562237698545 -2.6420495582062276 8.513659824837879 -3.3705058871161007 -5.5997065552687655 3.0590425726550916 14.985356305571335 0 0 0 1.2636196598539782 8.938026459348894 10.20395997605787 5.066952633352687 -6.25948270741612 -5.654494768180335 0 0 0 0 0 0 3.154162000293495 1.3097729635732314 2.10426140563733 -51.48684372266647 -13.127392410857782 -14.047027909401425 -65.85030657750936 34.96985171558522 16.969939640696044 -0.752398175041741 -0.11553838436486914 7.502692157865847 0 0 0 0 0 0 0 0 0 0 0 0 0 0 0 0 0 0 0 0 0 0 0 0 0 0 0 0 0 0 0 0 0 0 0 0 0 0 0 0 0 0 0 0 0 4.092488925561407 0.4242054204542795 11.726061895298388 -12.089324796475006 7.404028226574347 27.93512603470503 17.607931800755217 27.42164827320529 -9.330556966054088 1.1415619846803529 -0.8987346828153918 5.242612188068526 0 0 0 0 0 0 0 0 0 0 0 0 0 0 0 0 0 0 0 0 0 0 0 0 0 0 0 0 0 0 0 0 0 0 0 0 0 0 0 0 0 0 0 0 0 20.98104568134011 -14.105996918609394 -1.3854044453488832 -1.6764204646134673 24.12920962821724 12.756807011907906 0.26639152887219214 -4.237121299512252 -2.814390999776583 0 0 0 -22.02424474358001 -2.350550654707812 -1.5482825969309661 -0.35042240993258733 -0.8129805671823459 -7.801449394702081 2.8905800012969696 7.752008720951694 2.986996771191264 0 0 0
0 -0.002418482756739323 -0.0024184827567390577 0.1531544250444639 -0.758313315206292 -8.554333200747694 -3.792547623638557 15.096629367356886 -5.310637979277821 -8.355076908884167 3.5931003548494926 22.463702324862727 0 0 0 2.4066363644809323 12.528410123779357 15.455744136113916 7.853964732586264 -9.187237876262776 -8.71454929958392 0 0 0 0 0 0 4.727597376055508 1.157603185844865 3.151023244664853 -77.39331680783147 -22.855275067000317 -15.529947859945889 -110.08537499182184 52.57162756350913 3.1872121390364825 -1.1326532485172958 -0.1361509712750623 11.25445330958016 0 0 0 0 0 0 0 0 0 0 0 0 0 0 0 0 0 0 0 0 0 0 0 0 0 0 0 0 0 0 0 0 0 0 0 0 0 0 0 0 0 0 0 0 0 6.032872878694982 -0.4341147287814766 17.55206257306323 -16.53268357808029 13.03661540822454 41.450352621604026 26.471488764001307 41.84003648817347 -10.938925386651354 1.6804490053978414 -1.386269740678236 7.85754395458828 0 0 0 0 0 0 0 0 0 0 0 0 0 0 0 0 0 0 0 0 0 0 0 0 0 0 0 0 0 0 0 0 0 0 0 0 0 0 0 0 0 0 0 0 0 31.635474292347173 -21.52330678719061 -1.1702760694148344 -0.8997812694523631 38.01595644844081 16.686392087057747 0.47863708606951244 -6.3494712486803415 -4.235762033839473 0 0 0 -32.90584252627677 -4.53111179053867 -4.772365232795102 -0.7473059559387434 0.5874566671477067 -8.796175867429904 4.5126037135321955 11.565954101998276 4.653050759937195 0 0 0
0.21256301084670493 0.1023850311605755 -0.024991167414484466 -3.6978335613198476 -2.2146116437436896 -8.305443385820812 -3.57686142536855 17.234983246870925 -5.073755882860101 -7.8603465367529095 4.827848433778824 22.109315678400534 0 0 0 4.82849228498941 16.251334627236556 15.012247659717662 10.005240681726868 -12.210839472229472 -9.907359781490912 0 0 0 0 0 0 2.4463103831623205 1.530782143907115 1.0256708528304395 -78.52309029101697 -17.395497973931093 -19.51063629137942 -107.93941871943473 49.50938654882885 2.7276769463795554 -2.059617081846582 -0.039349069747179284 10.842446956555532 0 0 0 0 0 0 0 0 0 0 0 0 0 0 0 0 0 0 0 0 0 0 0 0 0 0 0 0 0 0 0 0 0 0 0 0 0 0 0 0 0 0 0 0 0 6.526363171184548 -0.6938086819950456 19.431603104908092 -14.757220869563165 13.732409779991407 44.56749475977006 23.75877461608334 39.41364025071564 -14.40331643278116 0.6524913805199246 -1.322927217277016 7.898255099069206 0 0 0 0 0 0 0 0 0 0 0 0 0 0 0 0 0 0 0 0 0 0 0 0 0 0 0 0 0 0 0 0 0 0 0 0 0 0 0 0 0 0 0 0 0 31.656870207877855 -17.95125614624045 -0.5483995518879532 2.2728802407034436 34.07142194742546 16.78581892772537 0.4248791065824406 -4.617822778318581 -4.27772029072772 0 0 0 -29.643595121556398 -11.40903494738989 -3.6688423174706575 -3.6645317561355037 11.464948073059075 -11.402374328096037 7.314278937725991 12.569041955535258 4.733038950742327 0 0 0
0.42512602169340985 0.20718854507789033 -0.04756385207222988 -7.560102247830421 -3.6508787847345254 -7.958797182778833 -3.4085416579410253 19.384344787206633 -4.982792188481463 -7.372285888201368 6.0655826115277165 21.764930263702297 0 0 0 7.271826190291069 19.989127297117143 14.726886387452721 12.248852980806431 -15.187295800515844 -11.23218197001917 0 0 0 0 0 0 0.15236673807104203 1.8188424815499142 -1.113212883965291 -80.00944500879064 -12.022578556992386 -23.50266918945945 -105.88133921644305 46.459796524264355 2.1284898311131597 -2.9872532693585914 0.050772337902055285 10.428928763495524 0 0 0 0 0 0 0 0 0 0 0 0 0 0 0 0 0 0 0 0 0 0 0 0 0 0 0 0 0 0 0 0 0 0 0 0 0 0 0 0 0 0 0 0 0 7.011102876103154 -0.9695385812556099 21.308963661541007 -12.940328318161512 14.33279139243756 47.714195681363925 21.32472864496459 36.87174352676811 -17.60462441607797 -0.37539526197171513 -1.2588646980167195 7.9378211947849335 0 0 0 0 0 0 0 0 0 0 0 0 0 0 0 0 0 0 0 0 0 0 0 0 0 0 0 0 0 0 0 0 0 0 0 0 0 0 0 0 0 0 0 0 0 31.717878013075374 -14.37962863703398 0.06371217462427657 5.303455239668653 30.128307021857268 16.628689444083314 0.3699580083432296 -2.8862149158981656 -4.321221656077254 0 0 0 -26.414829898124434 -18.33771785526519 -2.9425484830150785 -7.280811161519118 22.178147225575913 -14.752294432080644 10.128773585339795 13.567092830680268 4.863690849534529 0 0 0
0.6376890325401148 0.31199205899520516 -0.07013653672997529 -11.438328159935569 -5.060506140720986 -7.515172426234318 -3.2979556026878094 21.535164876444192 -5.04397430988269 -6.890495229121358 7.3061737430744955 21.43031313209855 0 0 0 9.759723204291486 23.73512427873915 14.60816115561687 14.59901414367365 -18.10980142962672 -12.699051331048926 0 0 0 0 0 0 -2.1510611599829197 2.020909554987633 -3.2622222944015475 -81.84571207141299 -6.763900171659173 -27.572500776688496 -103.88574254175211 43.42628216667267 1.4098678883825977 -3.9155177237331564 0.1341849385401097 10.014003824790768 0 0 0 0 0 0 0 0 0 0 0 0 0 0 0 0 0 0 0 0 0 0 0 0 0 0 0 0 0 0 0 0 0 0 0 0 0 0 0 0 0 0 0 0 0 7.486594932053648 -1.2609898275231013 23.18410605307963 -11.08754522101593 14.835097292811454 50.88687567263564 19.143295374150483 34.23062181292737 -20.5708885766703 -1.403212717643708 -1.1941029724701757 7.976230622864041 0 0 0 0 0 0 0 0 0 0 0 0 0 0 0 0 0 0 0 0 0 0 0 0 0 0 0 0 0 0 0 0 0 0 0 0 0 0 0 0 0 0 0 0 0 31.81686327388479 -10.808827274131271 0.6712247879749096 8.236517014541453 26.197447789350466 16.245293324089378 0.31378072287939324 -1.154649701716959 -4.366337226510208 0 0 0 -23.122405696012557 -25.295058549905537 -2.611884514185562 -11.993604304086293 32.632578507399636 -19.23002372517589 12.957874126214898 14.557669331034425 5.0453828343119955 0 0 0
0.8118246220862104 0.3711110929880664 -0.06100001649426426 -15.737198294801741 -5.78801427903418 -7.66953023804983 -3.783623414922015 23.91091372973099 -4.512290407572399 -7.223834747419857 8.851800785888592 19.970982431107938 0 0 0 12.325915627946058 21.525959170468017 11.045279840842817 16.41176970877292 -17.816207097705615 -11.84167956733269 0 0 0 0 0 0 -3.232408000173102 2.0869491164657004 -5.192007131240946 -80.48047901325855 -4.08266753820871 -28.490255898064504 -95.78772857182663 43.64954146659669 0.37185038372802803 -5.338310104549311 0.24512441764384504 9.594503750300042 0 0 0 0 0 0 0 0 0 0 0 0 0 0 0 0 0 0 0 0 0 0 0 0 0 0 0 0 0 0 0 0 0 0 0 0 0 0 0 0 0 0 0 0 0 8.091085591132162 -1.3749223561525097 23.524006938366572 -7.839429998481472 14.643917881399176 53.075594435609275 20.480222018821532 39.57446635572443 -20.135488248893704 -0.0245831302106439 -1.2375451799075634 7.627105887059437 0 0 0 0 0 0 0 0 0 0 0 0 0 0 0 0 0 0 0 0 0 0 0 0 0 0 0 0 0 0 0 0 0 0 0 0 0 0 0 0 0 0 0 0 0 31.753303157138554 -9.36128548311908 1.8428353587840351 11.496182635246154 24.808530007165956 15.316109878484273 0.2562486536293657 0.5768699144095984 -4.413142880192629 0 0 0 -24.21047710245594 -33.948444991689975 2.170269804244188 -23.178764452247215 42.61988629146352 -30.650350991787676 15.38739445625861 12.890471771088107 4.207187679179595 0 0 0
0.9859602116323061 0.43023012698092766 -0.05186349625855323 -20.04001517556759 -6.524997944930933 -7.768778918489936 -4.319249910761161 26.32602099563322 -4.197187157652714 -7.598602013573231 10.388471184313062 18.495867244009784 0 0 0 14.997285729462435 19.469401065372935 7.430368050651447 18.226100057843137 -17.548569120813468 -10.976333471431946 0 0 0 0 0 0 -4.315399861751462 2.116550366169223 -7.122754103852379 -79.16141510123455 -1.3807761334489996 -29.34182103757364 -87.65916838658057 43.97676758256758 -0.6168368748868671 -6.761890407259395 0.3456106550470863 9.172374460574757 0 0 0 0 0 0 0 0 0 0 0 0 0 0 0 0 0 0 0 0 0 0 0 0 0 0 0 0 0 0 0 0 0 0 0 0 0 0 0 0 0 0 0 0 0 8.694919999687933 -1.4924316925350634 23.862706102189474 -4.604882737286415 14.333349193836574 55.247152008199706 21.992561444405844 44.90803853021191 -19.48593716483902 1.3543062319187609 -1.2725762332732153 7.277031460118873 0 0 0 0 0 0 0 0 0 0 0 0 0 0 0 0 0 0 0 0 0 0 0 0 0 0 0 0 0 0 0 0 0 0 0 0 0 0 0 0 0 0 0 0 0 31.719880347558906 -7.912768023327482 3.00833493560066 14.74535660229029 23.469458656928236 14.312181896510838 0.19725739255699157 2.308341062788198 -4.461724548575259 0 0 0 -26.40544266670038 -42.48156795437351 7.774784674763387 -39.125305033363695 50.23119627133955 -46.816280761277326 17.826594443078882 11.259361607410165 3.3028379278974143 0 0 0
